# xmcd CD database file
#
# Track frame offsets:
#	150
#	26779
#	44429
#	64279
#	77890
#	93505
#	120611
#	140489
#
# Disc length: 2187 seconds
#
# Revision: 0
# Processed by: cddbd v1.5.2PL0 Copyright (c) Steve Scherf et al.
# Submitted via: CDex 1.51
#
DISCID=70088908
DTITLE=Nat Adderley - Autobiography
DYEAR=1900
DGENRE=Jazz
TTITLE0=Nat Adderley - Sermonette
TTITLE1=Nat Adderley - Work Song
TTITLE2=Nat Adderley - The Old Country
TTITLE3=Nat Adderley - Junkanoo
TTITLE4=Nat Adderley - Stony island
TTITLE5=Nat Adderley - Little Boy With The Sad Eyes
TTITLE6=Nat Adderley - Never Say Yes
TTITLE7=Nat Adderley - Jive Samba
EXTD=
EXTT0=
EXTT1=
EXTT2=
EXTT3=
EXTT4=
EXTT5=
EXTT6=
EXTT7=
PLAYORDER=
